<mxfile host="app.diagrams.net" modified="2023-07-20T14:37:28.345Z" agent="Mozilla/5.0 (Macintosh; Intel Mac OS X 10_15_7) AppleWebKit/537.36 (KHTML, like Gecko) Chrome/114.0.0.0 Safari/537.36" etag="o1TupjvHFfGKw-4nBJ5-" version="21.6.3" type="device">
  <diagram name="Страница 1" id="ovjLl_mzloy040lnHb3_">
    <mxGraphModel dx="1887" dy="657" grid="1" gridSize="10" guides="1" tooltips="1" connect="1" arrows="1" fold="1" page="1" pageScale="1" pageWidth="827" pageHeight="1169" math="0" shadow="0">
      <root>
        <mxCell id="0" />
        <mxCell id="1" parent="0" />
        <mxCell id="OdulzZrx8iXR5TApi2qv-5" value="" style="rounded=0;whiteSpace=wrap;html=1;fillColor=none;dashed=1;dashPattern=12 12;" vertex="1" parent="1">
          <mxGeometry x="-40" y="40" width="920" height="560" as="geometry" />
        </mxCell>
        <mxCell id="OdulzZrx8iXR5TApi2qv-7" value="&lt;b&gt;&lt;font style=&quot;font-size: 17px;&quot;&gt;Микросервисная архитектура&amp;nbsp;TaskForce&lt;/font&gt;&lt;/b&gt;" style="text;html=1;strokeColor=none;fillColor=none;align=center;verticalAlign=middle;whiteSpace=wrap;rounded=0;" vertex="1" parent="1">
          <mxGeometry x="-30" y="10" width="490" height="30" as="geometry" />
        </mxCell>
        <mxCell id="OdulzZrx8iXR5TApi2qv-69" style="edgeStyle=orthogonalEdgeStyle;rounded=0;orthogonalLoop=1;jettySize=auto;html=1;exitX=0.9;exitY=0.5;exitDx=0;exitDy=0;exitPerimeter=0;entryX=0.63;entryY=-0.048;entryDx=0;entryDy=0;entryPerimeter=0;" edge="1" parent="1" source="OdulzZrx8iXR5TApi2qv-12" target="OdulzZrx8iXR5TApi2qv-17">
          <mxGeometry relative="1" as="geometry" />
        </mxCell>
        <mxCell id="OdulzZrx8iXR5TApi2qv-12" value="" style="shape=actor;whiteSpace=wrap;html=1;" vertex="1" parent="1">
          <mxGeometry x="-230" y="280" width="50" height="60" as="geometry" />
        </mxCell>
        <mxCell id="OdulzZrx8iXR5TApi2qv-15" value="" style="endArrow=classic;html=1;rounded=0;exitX=0.9;exitY=0.5;exitDx=0;exitDy=0;exitPerimeter=0;entryX=-0.003;entryY=0.478;entryDx=0;entryDy=0;entryPerimeter=0;" edge="1" parent="1" source="OdulzZrx8iXR5TApi2qv-12" target="OdulzZrx8iXR5TApi2qv-5">
          <mxGeometry relative="1" as="geometry">
            <mxPoint x="-170" y="240" as="sourcePoint" />
            <mxPoint x="-50" y="310" as="targetPoint" />
          </mxGeometry>
        </mxCell>
        <mxCell id="OdulzZrx8iXR5TApi2qv-16" value="HTTP-запросы" style="edgeLabel;resizable=0;html=1;align=center;verticalAlign=middle;" connectable="0" vertex="1" parent="OdulzZrx8iXR5TApi2qv-15">
          <mxGeometry relative="1" as="geometry" />
        </mxCell>
        <mxCell id="OdulzZrx8iXR5TApi2qv-17" value="Клиенты" style="text;html=1;align=center;verticalAlign=middle;resizable=0;points=[];autosize=1;strokeColor=none;fillColor=none;" vertex="1" parent="1">
          <mxGeometry x="-230" y="335" width="70" height="30" as="geometry" />
        </mxCell>
        <mxCell id="OdulzZrx8iXR5TApi2qv-18" value="API GATEWAY" style="rounded=1;whiteSpace=wrap;html=1;" vertex="1" parent="1">
          <mxGeometry y="270" width="120" height="60" as="geometry" />
        </mxCell>
        <mxCell id="OdulzZrx8iXR5TApi2qv-19" value="User" style="swimlane;fontStyle=0;childLayout=stackLayout;horizontal=1;startSize=30;horizontalStack=0;resizeParent=1;resizeParentMax=0;resizeLast=0;collapsible=1;marginBottom=0;whiteSpace=wrap;html=1;absoluteArcSize=0;swimlaneLine=1;rounded=0;allowArrows=1;connectable=1;container=1;autosize=0;comic=0;enumerate=0;moveCells=0;pointerEvents=1;" vertex="1" parent="1">
          <mxGeometry x="340" y="60" width="200" height="180" as="geometry">
            <mxRectangle x="540" y="190" width="60" height="30" as="alternateBounds" />
          </mxGeometry>
        </mxCell>
        <mxCell id="OdulzZrx8iXR5TApi2qv-26" value="Регистрация" style="text;strokeColor=none;fillColor=none;align=left;verticalAlign=middle;spacingLeft=4;spacingRight=4;overflow=hidden;points=[[0,0.5],[1,0.5]];portConstraint=eastwest;rotatable=0;whiteSpace=wrap;html=1;" vertex="1" parent="OdulzZrx8iXR5TApi2qv-19">
          <mxGeometry y="30" width="200" height="30" as="geometry" />
        </mxCell>
        <mxCell id="OdulzZrx8iXR5TApi2qv-27" value="Валидация" style="text;strokeColor=none;fillColor=none;align=left;verticalAlign=middle;spacingLeft=4;spacingRight=4;overflow=hidden;points=[[0,0.5],[1,0.5]];portConstraint=eastwest;rotatable=0;whiteSpace=wrap;html=1;" vertex="1" parent="OdulzZrx8iXR5TApi2qv-19">
          <mxGeometry y="60" width="200" height="30" as="geometry" />
        </mxCell>
        <mxCell id="OdulzZrx8iXR5TApi2qv-20" value="Разделение по ролям" style="text;strokeColor=none;fillColor=none;align=left;verticalAlign=middle;spacingLeft=4;spacingRight=4;overflow=hidden;points=[[0,0.5],[1,0.5]];portConstraint=eastwest;rotatable=0;whiteSpace=wrap;html=1;" vertex="1" parent="OdulzZrx8iXR5TApi2qv-19">
          <mxGeometry y="90" width="200" height="30" as="geometry" />
        </mxCell>
        <mxCell id="OdulzZrx8iXR5TApi2qv-21" value="Расчет рейтинга" style="text;strokeColor=none;fillColor=none;align=left;verticalAlign=middle;spacingLeft=4;spacingRight=4;overflow=hidden;points=[[0,0.5],[1,0.5]];portConstraint=eastwest;rotatable=0;whiteSpace=wrap;html=1;" vertex="1" parent="OdulzZrx8iXR5TApi2qv-19">
          <mxGeometry y="120" width="200" height="30" as="geometry" />
        </mxCell>
        <mxCell id="OdulzZrx8iXR5TApi2qv-33" value="Смена пароля" style="text;strokeColor=none;fillColor=none;align=left;verticalAlign=middle;spacingLeft=4;spacingRight=4;overflow=hidden;points=[[0,0.5],[1,0.5]];portConstraint=eastwest;rotatable=0;whiteSpace=wrap;html=1;" vertex="1" parent="OdulzZrx8iXR5TApi2qv-19">
          <mxGeometry y="150" width="200" height="30" as="geometry" />
        </mxCell>
        <mxCell id="OdulzZrx8iXR5TApi2qv-28" value="Task" style="swimlane;fontStyle=0;childLayout=stackLayout;horizontal=1;startSize=30;horizontalStack=0;resizeParent=1;resizeParentMax=0;resizeLast=0;collapsible=1;marginBottom=0;whiteSpace=wrap;html=1;absoluteArcSize=0;swimlaneLine=1;rounded=0;allowArrows=1;connectable=1;container=1;autosize=0;comic=0;enumerate=0;moveCells=0;pointerEvents=1;" vertex="1" parent="1">
          <mxGeometry x="340" y="280" width="200" height="180" as="geometry">
            <mxRectangle x="540" y="190" width="60" height="30" as="alternateBounds" />
          </mxGeometry>
        </mxCell>
        <mxCell id="OdulzZrx8iXR5TApi2qv-29" value="Создание, редактирование, удаление" style="text;strokeColor=none;fillColor=none;align=left;verticalAlign=middle;spacingLeft=4;spacingRight=4;overflow=hidden;points=[[0,0.5],[1,0.5]];portConstraint=eastwest;rotatable=0;whiteSpace=wrap;html=1;" vertex="1" parent="OdulzZrx8iXR5TApi2qv-28">
          <mxGeometry y="30" width="200" height="30" as="geometry" />
        </mxCell>
        <mxCell id="OdulzZrx8iXR5TApi2qv-34" value="Загрузка изображений" style="text;strokeColor=none;fillColor=none;align=left;verticalAlign=middle;spacingLeft=4;spacingRight=4;overflow=hidden;points=[[0,0.5],[1,0.5]];portConstraint=eastwest;rotatable=0;whiteSpace=wrap;html=1;" vertex="1" parent="OdulzZrx8iXR5TApi2qv-28">
          <mxGeometry y="60" width="200" height="30" as="geometry" />
        </mxCell>
        <mxCell id="OdulzZrx8iXR5TApi2qv-35" value="Фильтрация" style="text;strokeColor=none;fillColor=none;align=left;verticalAlign=middle;spacingLeft=4;spacingRight=4;overflow=hidden;points=[[0,0.5],[1,0.5]];portConstraint=eastwest;rotatable=0;whiteSpace=wrap;html=1;" vertex="1" parent="OdulzZrx8iXR5TApi2qv-28">
          <mxGeometry y="90" width="200" height="30" as="geometry" />
        </mxCell>
        <mxCell id="OdulzZrx8iXR5TApi2qv-30" value="Отзывы" style="text;strokeColor=none;fillColor=none;align=left;verticalAlign=middle;spacingLeft=4;spacingRight=4;overflow=hidden;points=[[0,0.5],[1,0.5]];portConstraint=eastwest;rotatable=0;whiteSpace=wrap;html=1;" vertex="1" parent="OdulzZrx8iXR5TApi2qv-28">
          <mxGeometry y="120" width="200" height="30" as="geometry" />
        </mxCell>
        <mxCell id="OdulzZrx8iXR5TApi2qv-31" value="Статистика по выполненным заданиям" style="text;strokeColor=none;fillColor=none;align=left;verticalAlign=middle;spacingLeft=4;spacingRight=4;overflow=hidden;points=[[0,0.5],[1,0.5]];portConstraint=eastwest;rotatable=0;whiteSpace=wrap;html=1;" vertex="1" parent="OdulzZrx8iXR5TApi2qv-28">
          <mxGeometry y="150" width="200" height="30" as="geometry" />
        </mxCell>
        <mxCell id="OdulzZrx8iXR5TApi2qv-36" value="Notify" style="swimlane;fontStyle=0;childLayout=stackLayout;horizontal=1;startSize=30;horizontalStack=0;resizeParent=1;resizeParentMax=0;resizeLast=0;collapsible=1;marginBottom=0;whiteSpace=wrap;html=1;absoluteArcSize=0;swimlaneLine=1;rounded=0;allowArrows=1;connectable=1;container=1;autosize=0;comic=0;enumerate=0;moveCells=0;pointerEvents=1;" vertex="1" parent="1">
          <mxGeometry x="340" y="500" width="200" height="60" as="geometry">
            <mxRectangle x="540" y="190" width="60" height="30" as="alternateBounds" />
          </mxGeometry>
        </mxCell>
        <mxCell id="OdulzZrx8iXR5TApi2qv-37" value="Рассылка уведомлений" style="text;strokeColor=none;fillColor=none;align=left;verticalAlign=middle;spacingLeft=4;spacingRight=4;overflow=hidden;points=[[0,0.5],[1,0.5]];portConstraint=eastwest;rotatable=0;whiteSpace=wrap;html=1;" vertex="1" parent="OdulzZrx8iXR5TApi2qv-36">
          <mxGeometry y="30" width="200" height="30" as="geometry" />
        </mxCell>
        <mxCell id="OdulzZrx8iXR5TApi2qv-44" value="" style="verticalLabelPosition=bottom;verticalAlign=top;html=1;shape=mxgraph.basic.layered_rect;dx=16.73;outlineConnect=0;whiteSpace=wrap;rotation=60;" vertex="1" parent="1">
          <mxGeometry x="642.3" y="490" width="57.7" height="65.27" as="geometry" />
        </mxCell>
        <mxCell id="OdulzZrx8iXR5TApi2qv-46" value="RabbitMQ" style="text;html=1;strokeColor=none;fillColor=none;align=center;verticalAlign=middle;whiteSpace=wrap;rounded=0;" vertex="1" parent="1">
          <mxGeometry x="720" y="515" width="60" height="30" as="geometry" />
        </mxCell>
        <mxCell id="OdulzZrx8iXR5TApi2qv-47" value="" style="edgeStyle=none;orthogonalLoop=1;jettySize=auto;html=1;endArrow=classic;startArrow=classic;endSize=8;startSize=8;rounded=0;" edge="1" parent="1">
          <mxGeometry width="100" relative="1" as="geometry">
            <mxPoint x="540" y="529" as="sourcePoint" />
            <mxPoint x="622.3" y="529.41" as="targetPoint" />
            <Array as="points" />
          </mxGeometry>
        </mxCell>
        <mxCell id="OdulzZrx8iXR5TApi2qv-50" value="PostgreSQL" style="text;html=1;strokeColor=none;fillColor=none;align=center;verticalAlign=middle;whiteSpace=wrap;rounded=0;" vertex="1" parent="1">
          <mxGeometry x="720" y="370" width="60" height="30" as="geometry" />
        </mxCell>
        <mxCell id="OdulzZrx8iXR5TApi2qv-51" value="" style="edgeStyle=none;orthogonalLoop=1;jettySize=auto;html=1;endArrow=classic;startArrow=classic;endSize=8;startSize=8;rounded=0;" edge="1" parent="1">
          <mxGeometry width="100" relative="1" as="geometry">
            <mxPoint x="540" y="384.41" as="sourcePoint" />
            <mxPoint x="622.3" y="384.82" as="targetPoint" />
            <Array as="points" />
          </mxGeometry>
        </mxCell>
        <mxCell id="OdulzZrx8iXR5TApi2qv-56" value="" style="shape=datastore;whiteSpace=wrap;html=1;" vertex="1" parent="1">
          <mxGeometry x="642.3" y="355" width="60" height="60" as="geometry" />
        </mxCell>
        <mxCell id="OdulzZrx8iXR5TApi2qv-57" value="MongoDB" style="text;html=1;strokeColor=none;fillColor=none;align=center;verticalAlign=middle;whiteSpace=wrap;rounded=0;" vertex="1" parent="1">
          <mxGeometry x="720" y="155" width="60" height="30" as="geometry" />
        </mxCell>
        <mxCell id="OdulzZrx8iXR5TApi2qv-58" value="" style="edgeStyle=none;orthogonalLoop=1;jettySize=auto;html=1;endArrow=classic;startArrow=classic;endSize=8;startSize=8;rounded=0;" edge="1" parent="1">
          <mxGeometry width="100" relative="1" as="geometry">
            <mxPoint x="540" y="169.41000000000003" as="sourcePoint" />
            <mxPoint x="622.3" y="169.82" as="targetPoint" />
            <Array as="points" />
          </mxGeometry>
        </mxCell>
        <mxCell id="OdulzZrx8iXR5TApi2qv-59" value="" style="shape=datastore;whiteSpace=wrap;html=1;" vertex="1" parent="1">
          <mxGeometry x="642.3" y="140" width="60" height="60" as="geometry" />
        </mxCell>
        <mxCell id="OdulzZrx8iXR5TApi2qv-61" value="" style="rounded=0;whiteSpace=wrap;html=1;fillColor=none;dashed=1;dashPattern=12 12;" vertex="1" parent="1">
          <mxGeometry x="320" y="50" width="480" height="200" as="geometry" />
        </mxCell>
        <mxCell id="OdulzZrx8iXR5TApi2qv-62" value="" style="rounded=0;whiteSpace=wrap;html=1;fillColor=none;dashed=1;dashPattern=12 12;" vertex="1" parent="1">
          <mxGeometry x="320" y="270" width="480" height="200" as="geometry" />
        </mxCell>
        <mxCell id="OdulzZrx8iXR5TApi2qv-63" value="" style="rounded=0;whiteSpace=wrap;html=1;fillColor=none;dashed=1;dashPattern=12 12;" vertex="1" parent="1">
          <mxGeometry x="320" y="490" width="480" height="90" as="geometry" />
        </mxCell>
        <mxCell id="OdulzZrx8iXR5TApi2qv-64" value="" style="edgeStyle=none;orthogonalLoop=1;jettySize=auto;html=1;rounded=0;entryX=-0.005;entryY=0.537;entryDx=0;entryDy=0;entryPerimeter=0;" edge="1" parent="1" target="OdulzZrx8iXR5TApi2qv-61">
          <mxGeometry width="100" relative="1" as="geometry">
            <mxPoint x="120" y="280" as="sourcePoint" />
            <mxPoint x="220" y="280" as="targetPoint" />
            <Array as="points" />
          </mxGeometry>
        </mxCell>
        <mxCell id="OdulzZrx8iXR5TApi2qv-65" value="" style="edgeStyle=none;orthogonalLoop=1;jettySize=auto;html=1;rounded=0;entryX=0;entryY=0.5;entryDx=0;entryDy=0;" edge="1" parent="1" target="OdulzZrx8iXR5TApi2qv-62">
          <mxGeometry width="100" relative="1" as="geometry">
            <mxPoint x="120" y="299.44" as="sourcePoint" />
            <mxPoint x="220" y="299.44" as="targetPoint" />
            <Array as="points" />
          </mxGeometry>
        </mxCell>
        <mxCell id="OdulzZrx8iXR5TApi2qv-68" value="" style="edgeStyle=none;orthogonalLoop=1;jettySize=auto;html=1;rounded=0;exitX=1;exitY=0.75;exitDx=0;exitDy=0;entryX=0;entryY=0.5;entryDx=0;entryDy=0;" edge="1" parent="1" source="OdulzZrx8iXR5TApi2qv-18" target="OdulzZrx8iXR5TApi2qv-63">
          <mxGeometry width="100" relative="1" as="geometry">
            <mxPoint x="100" y="370" as="sourcePoint" />
            <mxPoint x="200" y="360" as="targetPoint" />
            <Array as="points" />
          </mxGeometry>
        </mxCell>
        <mxCell id="OdulzZrx8iXR5TApi2qv-70" style="edgeStyle=orthogonalEdgeStyle;rounded=0;orthogonalLoop=1;jettySize=auto;html=1;exitX=1;exitY=0.5;exitDx=0;exitDy=0;entryX=1.005;entryY=0.842;entryDx=0;entryDy=0;curved=1;entryPerimeter=0;" edge="1" parent="1" source="OdulzZrx8iXR5TApi2qv-61" target="OdulzZrx8iXR5TApi2qv-63">
          <mxGeometry relative="1" as="geometry">
            <Array as="points">
              <mxPoint x="870" y="150" />
              <mxPoint x="870" y="566" />
            </Array>
            <mxPoint x="1010" y="250" as="sourcePoint" />
            <mxPoint x="1010" y="768" as="targetPoint" />
          </mxGeometry>
        </mxCell>
        <mxCell id="OdulzZrx8iXR5TApi2qv-73" style="edgeStyle=orthogonalEdgeStyle;rounded=0;orthogonalLoop=1;jettySize=auto;html=1;exitX=1;exitY=0.5;exitDx=0;exitDy=0;entryX=1;entryY=0.5;entryDx=0;entryDy=0;curved=1;" edge="1" parent="1" target="OdulzZrx8iXR5TApi2qv-63">
          <mxGeometry relative="1" as="geometry">
            <Array as="points">
              <mxPoint x="840" y="340" />
              <mxPoint x="840" y="535" />
            </Array>
            <mxPoint x="800" y="340" as="sourcePoint" />
            <mxPoint x="802" y="756" as="targetPoint" />
          </mxGeometry>
        </mxCell>
      </root>
    </mxGraphModel>
  </diagram>
</mxfile>
